<svg xmlns="http://www.w3.org/2000/svg" xmlns:xlink="http://www.w3.org/1999/xlink" version="1.0" x="0" y="0" width="2400" height="556.2389024783706" viewBox="64.02054321289063 97.43754302978516 211.95891357421874 49.124913940429686" preserveAspectRatio="xMidYMid meet" color-interpolation-filters="sRGB"><g><defs><linearGradient id="92" x1="0%" y1="0%" x2="100%" y2="0%"><stop offset="0%" stop-color="#fa71cd"></stop> <stop offset="100%" stop-color="#9b59b6"></stop></linearGradient><linearGradient id="93" x1="0%" y1="0%" x2="100%" y2="0%"><stop offset="0%" stop-color="#f9d423"></stop> <stop offset="100%" stop-color="#f83600"></stop></linearGradient><linearGradient id="94" x1="0%" y1="0%" x2="100%" y2="0%"><stop offset="0%" stop-color="#0064d2"></stop> <stop offset="100%" stop-color="#1cb0f6"></stop></linearGradient><linearGradient id="95" x1="0%" y1="0%" x2="100%" y2="0%"><stop offset="0%" stop-color="#f00978"></stop> <stop offset="100%" stop-color="#3f51b1"></stop></linearGradient><linearGradient id="96" x1="0%" y1="0%" x2="100%" y2="0%"><stop offset="0%" stop-color="#7873f5"></stop> <stop offset="100%" stop-color="#ec77ab"></stop></linearGradient><linearGradient id="97" x1="0%" y1="0%" x2="100%" y2="0%"><stop offset="0%" stop-color="#f9d423"></stop> <stop offset="100%" stop-color="#e14fad"></stop></linearGradient><linearGradient id="98" x1="0%" y1="0%" x2="100%" y2="0%"><stop offset="0%" stop-color="#009efd"></stop> <stop offset="100%" stop-color="#2af598"></stop></linearGradient><linearGradient id="99" x1="0%" y1="0%" x2="100%" y2="0%"><stop offset="0%" stop-color="#ffcc00"></stop> <stop offset="100%" stop-color="#00b140"></stop></linearGradient><linearGradient id="100" x1="0%" y1="0%" x2="100%" y2="0%"><stop offset="0%" stop-color="#d51007"></stop> <stop offset="100%" stop-color="#ff8177"></stop></linearGradient><linearGradient id="102" x1="0%" y1="0%" x2="100%" y2="0%"><stop offset="0%" stop-color="#a2b6df"></stop> <stop offset="100%" stop-color="#0c3483"></stop></linearGradient><linearGradient id="103" x1="0%" y1="0%" x2="100%" y2="0%"><stop offset="0%" stop-color="#7ac5d8"></stop> <stop offset="100%" stop-color="#eea2a2"></stop></linearGradient><linearGradient id="104" x1="0%" y1="0%" x2="100%" y2="0%"><stop offset="0%" stop-color="#00ecbc"></stop> <stop offset="100%" stop-color="#007adf"></stop></linearGradient><linearGradient id="105" x1="0%" y1="0%" x2="100%" y2="0%"><stop offset="0%" stop-color="#b88746"></stop> <stop offset="100%" stop-color="#fdf5a6"></stop></linearGradient></defs><g fill="#ffffff" class="iconblsvg-g iconsvg" transform="translate(66.09857177734375,105.51557159423828)"><g class="tp-name" transform="translate(0,0)"><g transform="translate(0, 2.60229192404638)"><g transform="scale(1)"><path d="M7.78-2.43L7.78-2.43Q8.79-2.43 9.49-2.85 10.19-3.26 10.61-3.93 11.04-4.59 11.22-5.46 11.39-6.32 11.39-7.23L11.39-7.23 11.39-14.76 14.24-14.76 14.24-7.23Q14.24-5.72 13.88-4.39 13.51-3.06 12.73-2.06 11.95-1.06 10.73-0.48 9.5 0.1 7.8 0.1L7.8 0.1Q6.03 0.1 4.79-0.51 3.56-1.12 2.79-2.13 2.02-3.14 1.67-4.47 1.33-5.8 1.33-7.23L1.33-7.23 1.33-14.76 4.2-14.76 4.2-7.23Q4.2-6.3 4.38-5.44 4.55-4.57 4.98-3.91 5.41-3.24 6.09-2.84 6.78-2.43 7.78-2.43ZM26.99-6.8L26.99 0 24.2 0 24.2-6.11Q24.2-7.42 23.74-8.02 23.28-8.63 22.47-8.63L22.47-8.63Q22.06-8.63 21.62-8.46 21.19-8.3 20.8-7.99 20.42-7.69 20.1-7.28 19.79-6.86 19.65-6.36L19.65-6.36 19.65 0 16.86 0 16.86-10.89 19.38-10.89 19.38-8.88Q19.98-9.92 21.12-10.5 22.27-11.08 23.7-11.08L23.7-11.08Q24.72-11.08 25.36-10.71 26.01-10.33 26.36-9.73 26.72-9.13 26.85-8.36 26.99-7.59 26.99-6.8L26.99-6.8ZM35.28-2.77L35.84-0.56Q35.28-0.31 34.47-0.06 33.66 0.19 32.77 0.19L32.77 0.19Q32.18 0.19 31.67 0.04 31.16-0.1 30.78-0.43 30.4-0.75 30.17-1.26 29.94-1.77 29.94-2.49L29.94-2.49 29.94-8.75 28.5-8.75 28.5-10.89 29.94-10.89 29.94-14.43 32.72-14.43 32.72-10.89 35.01-10.89 35.01-8.75 32.72-8.75 32.72-3.43Q32.72-2.85 33.02-2.61 33.33-2.37 33.76-2.37L33.76-2.37Q34.2-2.37 34.62-2.52 35.03-2.66 35.28-2.77L35.28-2.77ZM40.27 0.21L40.27 0.21Q39.48 0.21 38.79-0.05 38.11-0.31 37.61-0.78 37.11-1.25 36.83-1.87 36.55-2.49 36.55-3.24L36.55-3.24Q36.55-4.01 36.89-4.67 37.23-5.32 37.85-5.78 38.46-6.24 39.31-6.5 40.17-6.76 41.19-6.76L41.19-6.76Q41.91-6.76 42.61-6.63 43.31-6.51 43.85-6.28L43.85-6.28 43.85-6.9Q43.85-7.98 43.23-8.57 42.62-9.15 41.41-9.15L41.41-9.15Q40.54-9.15 39.71-8.84 38.88-8.52 38-7.92L38-7.92 37.15-9.69Q39.25-11.08 41.68-11.08L41.68-11.08Q44.03-11.08 45.33-9.93 46.63-8.77 46.63-6.59L46.63-6.59 46.63-3.2Q46.63-2.77 46.79-2.58 46.94-2.39 47.3-2.37L47.3-2.37 47.3 0Q46.59 0.15 46.07 0.15L46.07 0.15Q45.28 0.15 44.85-0.21 44.43-0.56 44.32-1.14L44.32-1.14 44.26-1.75Q43.53-0.79 42.49-0.29 41.46 0.21 40.27 0.21ZM41.06-1.83L41.06-1.83Q41.77-1.83 42.4-2.08 43.04-2.33 43.39-2.74L43.39-2.74Q43.85-3.1 43.85-3.53L43.85-3.53 43.85-4.78Q43.35-4.97 42.77-5.08 42.18-5.2 41.64-5.2L41.64-5.2Q40.56-5.2 39.88-4.71 39.19-4.22 39.19-3.47L39.19-3.47Q39.19-2.77 39.73-2.3 40.27-1.83 41.06-1.83ZM55.76 0.21L55.76 0.21Q54.47 0.21 53.51-0.36 52.56-0.94 52.02-1.91L52.02-1.91 52.02 4.43 49.23 4.43 49.23-10.89 51.66-10.89 51.66-9.02Q52.27-9.98 53.22-10.53 54.18-11.08 55.43-11.08L55.43-11.08Q56.53-11.08 57.46-10.63 58.4-10.19 59.07-9.43 59.75-8.67 60.14-7.64 60.52-6.61 60.52-5.47L60.52-5.47Q60.52-4.28 60.17-3.24 59.81-2.2 59.18-1.43 58.54-0.67 57.67-0.23 56.8 0.21 55.76 0.21ZM54.82-2.16L54.82-2.16Q55.45-2.16 55.98-2.43 56.51-2.7 56.88-3.16 57.26-3.62 57.46-4.22 57.67-4.82 57.67-5.47L57.67-5.47Q57.67-6.15 57.44-6.75 57.21-7.34 56.81-7.78 56.4-8.21 55.85-8.46 55.3-8.71 54.66-8.71L54.66-8.71Q54.26-8.71 53.85-8.58 53.43-8.44 53.08-8.19 52.72-7.94 52.44-7.61 52.16-7.28 52.02-6.88L52.02-6.88 52.02-4.32Q52.39-3.39 53.16-2.78 53.93-2.16 54.82-2.16ZM68.94 0.21L68.94 0.21Q67.65 0.21 66.69-0.36 65.74-0.94 65.2-1.91L65.2-1.91 65.2 4.43 62.41 4.43 62.41-10.89 64.84-10.89 64.84-9.02Q65.45-9.98 66.4-10.53 67.36-11.08 68.61-11.08L68.61-11.08Q69.71-11.08 70.64-10.63 71.58-10.19 72.26-9.43 72.93-8.67 73.32-7.64 73.7-6.61 73.7-5.47L73.7-5.47Q73.7-4.28 73.35-3.24 72.99-2.2 72.36-1.43 71.73-0.67 70.85-0.23 69.98 0.21 68.94 0.21ZM68-2.16L68-2.16Q68.63-2.16 69.16-2.43 69.69-2.7 70.06-3.16 70.44-3.62 70.64-4.22 70.85-4.82 70.85-5.47L70.85-5.47Q70.85-6.15 70.62-6.75 70.4-7.34 69.99-7.78 69.58-8.21 69.03-8.46 68.48-8.71 67.84-8.71L67.84-8.71Q67.44-8.71 67.03-8.58 66.61-8.44 66.26-8.19 65.9-7.94 65.62-7.61 65.34-7.28 65.2-6.88L65.2-6.88 65.2-4.32Q65.57-3.39 66.34-2.78 67.11-2.16 68-2.16ZM80.64 0.21L80.64 0.21Q79.33 0.21 78.27-0.24 77.21-0.69 76.47-1.46 75.72-2.22 75.31-3.24 74.91-4.26 74.91-5.38L74.91-5.38Q74.91-6.55 75.3-7.58 75.7-8.61 76.44-9.39 77.19-10.17 78.26-10.62 79.33-11.08 80.67-11.08L80.67-11.08Q82-11.08 83.05-10.62 84.1-10.17 84.83-9.4 85.57-8.63 85.96-7.61 86.34-6.59 86.34-5.49L86.34-5.49Q86.34-5.22 86.33-4.97 86.32-4.72 86.28-4.55L86.28-4.55 77.86-4.55Q77.92-3.91 78.17-3.41 78.42-2.91 78.81-2.56 79.21-2.2 79.71-2.02 80.21-1.83 80.75-1.83L80.75-1.83Q81.58-1.83 82.32-2.23 83.06-2.64 83.33-3.31L83.33-3.31 85.72-2.64Q85.11-1.39 83.79-0.59 82.47 0.21 80.64 0.21ZM77.82-6.36L83.47-6.36Q83.37-7.59 82.57-8.33 81.77-9.06 80.62-9.06L80.62-9.06Q80.06-9.06 79.57-8.87 79.09-8.67 78.71-8.32 78.34-7.96 78.1-7.46 77.86-6.96 77.82-6.36L77.82-6.36ZM92.56 0.21L92.56 0.21Q91.43 0.21 90.48-0.23 89.52-0.67 88.84-1.43 88.15-2.2 87.77-3.23 87.38-4.26 87.38-5.45L87.38-5.45Q87.38-6.63 87.74-7.65 88.11-8.67 88.75-9.44 89.4-10.21 90.29-10.64 91.19-11.08 92.25-11.08L92.25-11.08Q93.45-11.08 94.42-10.5 95.38-9.92 95.93-8.98L95.93-8.98 95.93-15.18 98.71-15.18 98.71-3.2Q98.71-2.77 98.86-2.58 99-2.39 99.36-2.37L99.36-2.37 99.36 0Q98.63 0.15 98.17 0.15L98.17 0.15Q97.42 0.15 96.94-0.23 96.47-0.6 96.4-1.21L96.4-1.21 96.34-1.89Q95.74-0.85 94.71-0.32 93.68 0.21 92.56 0.21ZM93.28-2.16L93.28-2.16Q93.68-2.16 94.1-2.3 94.51-2.43 94.86-2.68 95.22-2.93 95.5-3.26 95.78-3.6 95.93-3.99L95.93-3.99 95.93-6.59Q95.76-7.05 95.46-7.43 95.16-7.82 94.77-8.1 94.39-8.38 93.96-8.54 93.53-8.71 93.12-8.71L93.12-8.71Q92.49-8.71 91.96-8.44 91.43-8.17 91.06-7.7 90.69-7.23 90.48-6.63 90.27-6.03 90.27-5.38L90.27-5.38Q90.27-4.7 90.5-4.12 90.73-3.53 91.12-3.1 91.52-2.66 92.07-2.41 92.62-2.16 93.28-2.16Z" transform="translate(-1.3300000429153442, 15.180000305175781)"></path></g></g> <g transform="translate(101.02999877929688, 0)" mask="url(#b13d55c6-8df1-43d5-9221-e261dfdee936)"><g><g fill="#d267f1" class="imagesvg"><rect fill="#ffffff" fill-opacity="0" stroke-width="2" x="0" y="0" width="24.812859043659042" height="24.812859043659042" class="image-rect"></rect> <svg viewBox="0 0 60 68.96313920209649" x="0" y="0" width="24.812859043659042" height="24.812859043659042" class="image-svg-svg bn" style="overflow: visible;"><g hollow-target=""><g><svg xmlns="http://www.w3.org/2000/svg" viewBox="10.44 4.531 79.12 90.939" style="overflow: visible;" width="60" height="68.96313920209649" x="0" y="0" filtersec="colorsb3446978506" filter="url(#kqI2QKySzNHt76HqN4rJ9)"><g transform="scale(1, 1) skewX(0)"><path d="M50.367 95.47L10.806 73.052l-.366-45.47L49.634 4.531l39.561 22.417.365 45.469L50.367 95.47zM13.792 71.296l36.546 20.709L86.547 70.71l-.338-42.006L49.663 7.995 13.453 29.29l.339 42.006z" fill="#000000"></path><path d="M50.326 90.426L15.153 70.495l-.326-40.426L49.675 9.573l.251.142 34.921 19.79.002.289.323 40.137-.248.146-34.598 20.349zM16.148 69.909l34.168 19.362 33.853-19.909-.317-39.272-34.167-19.362-33.853 19.91.316 39.271z" fill="#000000"></path></g><defs><filter id="kqI2QKySzNHt76HqN4rJ9"><feColorMatrix type="matrix" values="0 0 0 0 0.8203125  0 0 0 0 0.40234375  0 0 0 0 0.94140625  0 0 0 1 0"></feColorMatrix></filter></defs></svg></g> <g><svg xmlns="http://www.w3.org/2000/svg" xlink="http://www.w3.org/1999/xlink" viewBox="0 0 105.47000122070312 100" width="40" height="45.97543" x="10" y="11.493854601048241" class="image-svg-icon"><defs><linearGradient id="aea0a744f-d118-4a75-af51-10123d2acb63" x1="106.93" y1="49.75" x2="76.88" y2="50.03" gradientUnits="userSpaceOnUse"><stop offset="0" stop-color="#d267f1"></stop><stop offset="1" stop-color="#3d0491"></stop></linearGradient><linearGradient id="b24df960f-0695-4647-a205-08a10fc413f1" x1="-2.93" y1="50.25" x2="28.81" y2="49.97" href="#aea0a744f-d118-4a75-af51-10123d2acb63"></linearGradient><linearGradient id="c8ec5d099-096f-4e20-b4bb-e3cb7f3845f0" x1="53.29" y1="45.23" x2="52.16" y2="100.84" href="#aea0a744f-d118-4a75-af51-10123d2acb63"></linearGradient><linearGradient id="d5690b04d-1763-4d8b-b9f4-263b0df15fea" x1="53.58" y1="-3.7" x2="51.62" y2="67.07" href="#aea0a744f-d118-4a75-af51-10123d2acb63"></linearGradient></defs><path d="M79.78 19.78L84 27.07l-2 3.42 15.3 8.83v21.36L82 69.51l2 3.42-4.21 7.29 25.68-14.83V34.61z" fill="url(#aea0a744f-d118-4a75-af51-10123d2acb63)"></path><path d="M23.45 69.51L8.16 60.68V39.32l15.29-8.83-2-3.42 4.21-7.29L0 34.61v30.78l25.68 14.83-4.21-7.29z" fill="url(#b24df960f-0695-4647-a205-08a10fc413f1)"></path><path d="M82.26 69.93l-.26-.42L70.75 50l-2.39-4.14H37.1L34.71 50 23.45 69.51l-2 3.42 4.21 7.29L37.1 100h31.26l10.83-18.75.59-1L84 72.93zM72 77.11l-8.43 14.61H41.88l-8.54-14.8-2.31-4 3.55-6.14 7.3-12.65h21.69l7.31 12.65.08.15 3.46 6-2.3 4z" fill="url(#c8ec5d099-096f-4e20-b4bb-e3cb7f3845f0)"></path><path d="M79.78 19.78l-.59-1L68.36 0H37.1L25.68 19.78l-4.21 7.29 2 3.42L34.71 50l2.39 4.14h31.26L70.75 50 82 30.49l.25-.42 1.73-3zM71 33.06l-.08.15-7.35 12.65H41.88l-7.3-12.65L31 27.07l2.31-4 8.54-14.8h21.72L72 22.89l.11.19 2.3 4z" fill="url(#d5690b04d-1763-4d8b-b9f4-263b0df15fea)"></path></svg></g></g></svg> </g></g><rect v-gra="id" width="36.81285858154297" height="36.81285858154297" transform="translate(-6, -6)" style="pointer-events:none;" fill="url(#gLsb3RD2_9t2tFZMr9vyk)"></rect></g> <g fill="#ffffff" transform="translate(128.84285736083984, 2.60229192404638)"><g transform="scale(1)"><path d="M0.87-7.48L0.87-7.48Q0.87-8.81 1.34-10.14 1.81-11.46 2.7-12.49 3.6-13.53 4.91-14.19 6.22-14.84 7.88-14.84L7.88-14.84Q9.85-14.84 11.26-13.95 12.66-13.06 13.33-11.62L13.33-11.62 12.18-10.91Q11.83-11.64 11.32-12.14 10.81-12.64 10.23-12.95 9.65-13.26 9.02-13.4 8.4-13.53 7.8-13.53L7.8-13.53Q6.47-13.53 5.45-12.99 4.43-12.45 3.73-11.58 3.04-10.71 2.68-9.62 2.33-8.52 2.33-7.4L2.33-7.4Q2.33-6.17 2.75-5.05 3.18-3.93 3.92-3.07 4.66-2.2 5.67-1.69 6.67-1.19 7.86-1.19L7.86-1.19Q8.48-1.19 9.14-1.34 9.79-1.5 10.41-1.84 11.02-2.18 11.54-2.69 12.06-3.2 12.41-3.93L12.41-3.93 13.62-3.31Q13.26-2.47 12.62-1.84 11.98-1.21 11.19-0.77 10.4-0.33 9.51-0.1 8.63 0.12 7.78 0.12L7.78 0.12Q6.26 0.12 4.99-0.54 3.72-1.21 2.81-2.28 1.89-3.35 1.38-4.71 0.87-6.07 0.87-7.48ZM24.93-6.34L24.93 0 23.51 0 23.51-6.05Q23.51-7.9 22.88-8.81 22.25-9.73 21.02-9.73L21.02-9.73Q20.42-9.73 19.82-9.49 19.23-9.25 18.71-8.84 18.19-8.42 17.81-7.86 17.42-7.3 17.23-6.63L17.23-6.63 17.23 0 15.82 0 15.82-15.18 17.23-15.18 17.23-8.38Q17.88-9.6 19.02-10.31 20.17-11.02 21.5-11.02L21.5-11.02Q22.43-11.02 23.08-10.68 23.72-10.33 24.14-9.72 24.55-9.11 24.74-8.24 24.93-7.38 24.93-6.34L24.93-6.34ZM30.67 0.21L30.67 0.21Q29.9 0.21 29.24-0.05 28.59-0.31 28.1-0.77 27.61-1.23 27.34-1.84 27.07-2.45 27.07-3.16L27.07-3.16Q27.07-3.87 27.4-4.47 27.73-5.07 28.34-5.51 28.94-5.95 29.77-6.19 30.6-6.42 31.6-6.42L31.6-6.42Q32.43-6.42 33.28-6.28 34.14-6.13 34.8-5.86L34.8-5.86 34.8-6.84Q34.8-8.27 33.99-9.12 33.18-9.96 31.75-9.96L31.75-9.96Q30.91-9.96 30.04-9.63 29.17-9.29 28.27-8.67L28.27-8.67 27.78-9.6Q29.88-11.02 31.85-11.02L31.85-11.02Q33.89-11.02 35.05-9.88 36.22-8.73 36.22-6.72L36.22-6.72 36.22-1.83Q36.22-1.25 36.74-1.25L36.74-1.25 36.74 0Q36.38 0.06 36.2 0.06L36.2 0.06Q35.65 0.06 35.35-0.21 35.05-0.48 35.03-0.96L35.03-0.96 34.99-1.81Q34.24-0.83 33.11-0.31 31.98 0.21 30.67 0.21ZM31-0.87L31-0.87Q32.1-0.87 33.02-1.29 33.95-1.7 34.43-2.39L34.43-2.39Q34.62-2.58 34.71-2.8 34.8-3.01 34.8-3.2L34.8-3.2 34.8-4.97Q34.1-5.24 33.34-5.38 32.58-5.53 31.79-5.53L31.79-5.53Q30.29-5.53 29.36-4.91 28.42-4.28 28.42-3.26L28.42-3.26Q28.42-2.77 28.62-2.33 28.81-1.89 29.16-1.57 29.5-1.25 29.98-1.06 30.46-0.87 31-0.87ZM48.38-6.34L48.38 0 46.96 0 46.96-6.05Q46.96-7.98 46.39-8.86 45.82-9.73 44.64-9.73L44.64-9.73Q44.01-9.73 43.39-9.5 42.77-9.27 42.23-8.86 41.7-8.44 41.29-7.87 40.87-7.3 40.69-6.63L40.69-6.63 40.69 0 39.27 0 39.27-10.83 40.56-10.83 40.56-8.38Q41.23-9.56 42.46-10.29 43.7-11.02 45.16-11.02L45.16-11.02Q46.05-11.02 46.67-10.69 47.3-10.35 47.67-9.75 48.05-9.15 48.21-8.27 48.38-7.4 48.38-6.34L48.38-6.34ZM60.5-6.34L60.5 0 59.09 0 59.09-6.05Q59.09-7.98 58.51-8.86 57.94-9.73 56.76-9.73L56.76-9.73Q56.13-9.73 55.51-9.5 54.89-9.27 54.36-8.86 53.83-8.44 53.41-7.87 52.99-7.3 52.81-6.63L52.81-6.63 52.81 0 51.39 0 51.39-10.83 52.68-10.83 52.68-8.38Q53.35-9.56 54.58-10.29 55.82-11.02 57.28-11.02L57.28-11.02Q58.17-11.02 58.79-10.69 59.42-10.35 59.79-9.75 60.17-9.15 60.33-8.27 60.5-7.4 60.5-6.34L60.5-6.34ZM68.19 0.21L68.19 0.21Q67.01 0.21 66.02-0.24 65.03-0.69 64.3-1.47 63.58-2.25 63.17-3.26 62.77-4.28 62.77-5.45L62.77-5.45Q62.77-6.59 63.17-7.6 63.58-8.61 64.29-9.37 65.01-10.12 66.01-10.57 67.01-11.02 68.17-11.02L68.17-11.02Q69.36-11.02 70.34-10.57 71.33-10.12 72.04-9.36 72.74-8.59 73.14-7.59 73.53-6.59 73.53-5.47L73.53-5.47Q73.53-5.3 73.53-5.14 73.53-4.97 73.51-4.91L73.51-4.91 64.24-4.91Q64.3-4.03 64.65-3.3 64.99-2.56 65.53-2.02 66.07-1.48 66.77-1.17 67.46-0.87 68.25-0.87L68.25-0.87Q68.77-0.87 69.29-1.02 69.81-1.16 70.25-1.41 70.69-1.66 71.04-2.03 71.39-2.39 71.58-2.83L71.58-2.83 72.81-2.49Q72.56-1.89 72.1-1.4 71.64-0.91 71.04-0.55 70.44-0.19 69.71 0.01 68.98 0.21 68.19 0.21ZM64.22-5.99L72.18-5.99Q72.12-6.86 71.78-7.58 71.43-8.3 70.9-8.81 70.37-9.33 69.68-9.63 68.98-9.92 68.19-9.92L68.19-9.92Q67.4-9.92 66.69-9.63 65.99-9.33 65.46-8.81 64.93-8.3 64.6-7.57 64.28-6.84 64.22-5.99L64.22-5.99ZM75.78-1.98L75.78-15.18 77.19-15.18 77.19-2.45Q77.19-1.85 77.53-1.51 77.86-1.16 78.46-1.16L78.46-1.16Q78.69-1.16 79-1.23 79.31-1.29 79.58-1.39L79.58-1.39 79.83-0.25Q79.44-0.08 78.87 0.02 78.3 0.12 77.88 0.12L77.88 0.12Q76.9 0.12 76.34-0.43 75.78-0.98 75.78-1.98L75.78-1.98Z" transform="translate(-0.8700000047683716, 15.180000305175781)"></path></g></g></g> <g fill-rule="" class="tp-slogan iconsvg-slogansvg" fill="#ffffff" transform="translate(5,30.81285858154297)"><rect x="0" height="1" y="3.580000877380371" width="70.46142768859863"></rect> <rect height="1" y="3.580000877380371" width="70.46142768859863" x="127.34142875671387"></rect> <g transform="translate(73.46142768859863,0)"><g transform="scale(1)"><path d="M1.10-1.72L0.50-1.02C0.85-0.66 1.26-0.38 1.73-0.17C2.20 0.04 2.71 0.14 3.26 0.14C3.68 0.14 4.05 0.09 4.38-0.03C4.71-0.15 4.99-0.31 5.22-0.51C5.45-0.71 5.63-0.95 5.75-1.22C5.88-1.50 5.94-1.79 5.94-2.10C5.94-2.39 5.90-2.64 5.81-2.86C5.73-3.08 5.62-3.27 5.47-3.44C5.33-3.60 5.16-3.75 4.96-3.87C4.76-3.99 4.54-4.10 4.32-4.20L3.20-4.68C3.04-4.74 2.89-4.81 2.74-4.89C2.58-4.97 2.44-5.05 2.32-5.15C2.19-5.25 2.09-5.37 2.01-5.50C1.93-5.63 1.90-5.80 1.90-5.99C1.90-6.35 2.03-6.63 2.30-6.83C2.57-7.04 2.92-7.14 3.36-7.14C3.73-7.14 4.06-7.07 4.35-6.94C4.64-6.81 4.91-6.63 5.15-6.40L5.69-7.04C5.41-7.33 5.07-7.57 4.67-7.75C4.27-7.93 3.83-8.02 3.36-8.02C3-8.02 2.67-7.96 2.37-7.86C2.07-7.76 1.81-7.61 1.59-7.42C1.37-7.23 1.20-7.01 1.07-6.76C0.95-6.50 0.89-6.22 0.89-5.93C0.89-5.64 0.94-5.39 1.03-5.17C1.13-4.95 1.25-4.76 1.40-4.60C1.56-4.44 1.73-4.30 1.92-4.19C2.11-4.08 2.30-3.98 2.48-3.90L3.61-3.41C3.80-3.32 3.97-3.24 4.13-3.16C4.29-3.08 4.43-2.99 4.54-2.89C4.66-2.79 4.75-2.67 4.82-2.53C4.89-2.39 4.92-2.22 4.92-2.02C4.92-1.63 4.78-1.32 4.49-1.09C4.20-0.85 3.80-0.73 3.28-0.73C2.87-0.73 2.47-0.82 2.09-1.00C1.71-1.18 1.38-1.42 1.10-1.72ZM8.88-7.03L8.88 0L9.89 0L9.89-7.03L12.26-7.03L12.26-7.87L6.50-7.87L6.50-7.03ZM14.68-4.14L14.68-7.07L16.00-7.07C16.61-7.07 17.08-6.96 17.41-6.76C17.74-6.55 17.90-6.18 17.90-5.66C17.90-5.15 17.74-4.77 17.41-4.52C17.08-4.27 16.61-4.14 16.00-4.14ZM18 0L19.13 0L17.14-3.43C17.67-3.57 18.10-3.82 18.42-4.19C18.74-4.56 18.90-5.05 18.90-5.66C18.90-6.07 18.83-6.42 18.70-6.70C18.56-6.98 18.37-7.20 18.13-7.38C17.88-7.56 17.59-7.68 17.25-7.76C16.91-7.83 16.54-7.87 16.14-7.87L13.68-7.87L13.68 0L14.68 0L14.68-3.32L16.10-3.32ZM23.88-3.20L21.52-3.20L21.89-4.40C22.03-4.84 22.17-5.28 22.30-5.72C22.42-6.15 22.55-6.60 22.67-7.06L22.72-7.06C22.84-6.60 22.97-6.15 23.10-5.72C23.23-5.28 23.36-4.84 23.51-4.40ZM24.13-2.40L24.88 0L25.94 0L23.28-7.87L22.15-7.87L19.49 0L20.51 0L21.26-2.40ZM28.21-7.03L28.21 0L29.22 0L29.22-7.03L31.60-7.03L31.60-7.87L25.84-7.87L25.84-7.03ZM33.01-7.87L33.01 0L37.67 0L37.67-0.85L34.01-0.85L34.01-3.71L37.00-3.71L37.00-4.56L34.01-4.56L34.01-7.03L37.55-7.03L37.55-7.87ZM38.88-3.94C38.88-3.30 38.97-2.72 39.14-2.21C39.32-1.71 39.56-1.28 39.88-0.93C40.19-0.58 40.56-0.32 40.99-0.13C41.42 0.05 41.90 0.14 42.42 0.14C42.95 0.14 43.42 0.06 43.84-0.11C44.26-0.29 44.60-0.50 44.86-0.77L44.86-4.08L42.28-4.08L42.28-3.25L43.94-3.25L43.94-1.20C43.78-1.06 43.58-0.94 43.33-0.86C43.07-0.77 42.81-0.73 42.53-0.73C42.10-0.73 41.73-0.81 41.41-0.96C41.08-1.11 40.81-1.33 40.59-1.61C40.37-1.89 40.20-2.23 40.09-2.62C39.97-3.02 39.91-3.46 39.91-3.96C39.91-4.45 39.97-4.89 40.10-5.28C40.22-5.67 40.40-6.01 40.62-6.28C40.84-6.56 41.12-6.77 41.44-6.92C41.76-7.07 42.12-7.14 42.52-7.14C42.92-7.14 43.25-7.07 43.51-6.93C43.77-6.79 44.00-6.62 44.20-6.41L44.76-7.04C44.53-7.28 44.23-7.51 43.87-7.71C43.50-7.91 43.05-8.02 42.50-8.02C41.98-8.02 41.49-7.92 41.05-7.73C40.61-7.55 40.23-7.28 39.91-6.92C39.58-6.57 39.33-6.14 39.15-5.64C38.97-5.14 38.88-4.57 38.88-3.94ZM48.01-3.05L48.01 0L49.02 0L49.02-3.05L51.38-7.87L50.34-7.87L49.33-5.65C49.21-5.36 49.08-5.08 48.95-4.80C48.81-4.52 48.68-4.23 48.54-3.94L48.49-3.94C48.36-4.23 48.23-4.52 48.11-4.80C47.99-5.08 47.86-5.36 47.74-5.65L46.72-7.87L45.65-7.87Z" transform="translate(-0.504, 8.016)"></path></g></g></g></g><defs v-gra="od"></defs><defs v-gra="id"><filter id="bf850e7e-85ea-4ec7-a474-3f1c9fc0697e" filterUnits="userSpaceOnUse"><feColorMatrix type="matrix" values="0 0 0 0 0.99609375  0 0 0 0 0.99609375  0 0 0 0 0.99609375  0 0 0 1 0"></feColorMatrix></filter><linearGradient x1="0" y1="1" x2="0" y2="0" id="gLsb3RD2_9t2tFZMr9vyk"><stop offset="0%" stop-color="#4cf37b"></stop><stop offset="50%" stop-color="#23fe6f"></stop><stop offset="100%" stop-color="#131313"></stop></linearGradient><filter id="42443b3f1de60f6b6fd3b6a9844b4764" filterUnits="objectBoundingBox"><feColorMatrix type="matrix" values="0 0 0 0 0.99609375  0 0 0 0 0.99609375  0 0 0 0 0.99609375  0 0 0 1 0"></feColorMatrix></filter></defs><mask v-gra="im" id="b13d55c6-8df1-43d5-9221-e261dfdee936"><g filter="url(#bf850e7e-85ea-4ec7-a474-3f1c9fc0697e)"><g><g fill="#d267f1" class="imagesvg"><rect fill="#ffffff" fill-opacity="0" stroke-width="2" x="0" y="0" width="24.812859043659042" height="24.812859043659042" class="image-rect"></rect> <svg viewBox="0 0 60 68.96313920209649" x="0" y="0" width="24.812859043659042" height="24.812859043659042" class="image-svg-svg bn" style="overflow: visible;"><g hollow-target=""><g><svg xmlns="http://www.w3.org/2000/svg" viewBox="10.44 4.531 79.12 90.939" style="overflow: visible;" width="60" height="68.96313920209649" x="0" y="0" filtersec="colorsb3446978506"><g transform="scale(1, 1) skewX(0)"><path d="M50.367 95.47L10.806 73.052l-.366-45.47L49.634 4.531l39.561 22.417.365 45.469L50.367 95.47zM13.792 71.296l36.546 20.709L86.547 70.71l-.338-42.006L49.663 7.995 13.453 29.29l.339 42.006z" fill="#000000"></path><path d="M50.326 90.426L15.153 70.495l-.326-40.426L49.675 9.573l.251.142 34.921 19.79.002.289.323 40.137-.248.146-34.598 20.349zM16.148 69.909l34.168 19.362 33.853-19.909-.317-39.272-34.167-19.362-33.853 19.91.316 39.271z" fill="#000000"></path></g><defs><filter id="kqI2QKySzNHt76HqN4rJ9"><feColorMatrix type="matrix" values="0 0 0 0 0.8203125  0 0 0 0 0.40234375  0 0 0 0 0.94140625  0 0 0 1 0"></feColorMatrix></filter></defs></svg></g> <g><svg xmlns="http://www.w3.org/2000/svg" xlink="http://www.w3.org/1999/xlink" viewBox="0 0 105.47000122070312 100" width="40" height="45.97543" x="10" y="11.493854601048241" class="image-svg-icon"><defs><linearGradient id="aea0a744f-d118-4a75-af51-10123d2acb63" x1="106.93" y1="49.75" x2="76.88" y2="50.03" gradientUnits="userSpaceOnUse"><stop offset="0" stop-color="#d267f1"></stop><stop offset="1" stop-color="#3d0491"></stop></linearGradient><linearGradient id="b24df960f-0695-4647-a205-08a10fc413f1" x1="-2.93" y1="50.25" x2="28.81" y2="49.97" href="#aea0a744f-d118-4a75-af51-10123d2acb63"></linearGradient><linearGradient id="c8ec5d099-096f-4e20-b4bb-e3cb7f3845f0" x1="53.29" y1="45.23" x2="52.16" y2="100.84" href="#aea0a744f-d118-4a75-af51-10123d2acb63"></linearGradient><linearGradient id="d5690b04d-1763-4d8b-b9f4-263b0df15fea" x1="53.58" y1="-3.7" x2="51.62" y2="67.07" href="#aea0a744f-d118-4a75-af51-10123d2acb63"></linearGradient></defs><path d="M79.78 19.78L84 27.07l-2 3.42 15.3 8.83v21.36L82 69.51l2 3.42-4.21 7.29 25.68-14.83V34.61z" fill="url(#aea0a744f-d118-4a75-af51-10123d2acb63)"></path><path d="M23.45 69.51L8.16 60.68V39.32l15.29-8.83-2-3.42 4.21-7.29L0 34.61v30.78l25.68 14.83-4.21-7.29z" fill="url(#b24df960f-0695-4647-a205-08a10fc413f1)"></path><path d="M82.26 69.93l-.26-.42L70.75 50l-2.39-4.14H37.1L34.71 50 23.45 69.51l-2 3.42 4.21 7.29L37.1 100h31.26l10.83-18.75.59-1L84 72.93zM72 77.11l-8.43 14.61H41.88l-8.54-14.8-2.31-4 3.55-6.14 7.3-12.65h21.69l7.31 12.65.08.15 3.46 6-2.3 4z" fill="url(#c8ec5d099-096f-4e20-b4bb-e3cb7f3845f0)"></path><path d="M79.78 19.78l-.59-1L68.36 0H37.1L25.68 19.78l-4.21 7.29 2 3.42L34.71 50l2.39 4.14h31.26L70.75 50 82 30.49l.25-.42 1.73-3zM71 33.06l-.08.15-7.35 12.65H41.88l-7.3-12.65L31 27.07l2.31-4 8.54-14.8h21.72L72 22.89l.11.19 2.3 4z" fill="url(#d5690b04d-1763-4d8b-b9f4-263b0df15fea)"></path></svg></g></g></svg> </g></g></g></mask></g></svg>