<svg xmlns="http://www.w3.org/2000/svg" xmlns:xlink="http://www.w3.org/1999/xlink" version="1.0" x="0" y="0" width="2400" height="2692.9034490629106" viewBox="156.78818607330322 110.1757287979126 26.42362403869629 29.64844512939453" preserveAspectRatio="xMidYMid meet" color-interpolation-filters="sRGB"><g><defs><linearGradient id="92" x1="0%" y1="0%" x2="100%" y2="0%"><stop offset="0%" stop-color="#fa71cd"></stop> <stop offset="100%" stop-color="#9b59b6"></stop></linearGradient><linearGradient id="93" x1="0%" y1="0%" x2="100%" y2="0%"><stop offset="0%" stop-color="#f9d423"></stop> <stop offset="100%" stop-color="#f83600"></stop></linearGradient><linearGradient id="94" x1="0%" y1="0%" x2="100%" y2="0%"><stop offset="0%" stop-color="#0064d2"></stop> <stop offset="100%" stop-color="#1cb0f6"></stop></linearGradient><linearGradient id="95" x1="0%" y1="0%" x2="100%" y2="0%"><stop offset="0%" stop-color="#f00978"></stop> <stop offset="100%" stop-color="#3f51b1"></stop></linearGradient><linearGradient id="96" x1="0%" y1="0%" x2="100%" y2="0%"><stop offset="0%" stop-color="#7873f5"></stop> <stop offset="100%" stop-color="#ec77ab"></stop></linearGradient><linearGradient id="97" x1="0%" y1="0%" x2="100%" y2="0%"><stop offset="0%" stop-color="#f9d423"></stop> <stop offset="100%" stop-color="#e14fad"></stop></linearGradient><linearGradient id="98" x1="0%" y1="0%" x2="100%" y2="0%"><stop offset="0%" stop-color="#009efd"></stop> <stop offset="100%" stop-color="#2af598"></stop></linearGradient><linearGradient id="99" x1="0%" y1="0%" x2="100%" y2="0%"><stop offset="0%" stop-color="#ffcc00"></stop> <stop offset="100%" stop-color="#00b140"></stop></linearGradient><linearGradient id="100" x1="0%" y1="0%" x2="100%" y2="0%"><stop offset="0%" stop-color="#d51007"></stop> <stop offset="100%" stop-color="#ff8177"></stop></linearGradient><linearGradient id="102" x1="0%" y1="0%" x2="100%" y2="0%"><stop offset="0%" stop-color="#a2b6df"></stop> <stop offset="100%" stop-color="#0c3483"></stop></linearGradient><linearGradient id="103" x1="0%" y1="0%" x2="100%" y2="0%"><stop offset="0%" stop-color="#7ac5d8"></stop> <stop offset="100%" stop-color="#eea2a2"></stop></linearGradient><linearGradient id="104" x1="0%" y1="0%" x2="100%" y2="0%"><stop offset="0%" stop-color="#00ecbc"></stop> <stop offset="100%" stop-color="#007adf"></stop></linearGradient><linearGradient id="105" x1="0%" y1="0%" x2="100%" y2="0%"><stop offset="0%" stop-color="#b88746"></stop> <stop offset="100%" stop-color="#fdf5a6"></stop></linearGradient></defs><g fill="#d267f1" class="iconsvg-imagesvg" transform="translate(157.59357070922852,112.59357070922852)" mask="url(#0db6b6d4-62e3-47c0-9e2e-d632900557ff)"><rect fill="#333" fill-opacity="0" stroke-width="2" x="0" y="0" width="24.812859043659042" height="24.812859043659042" class="image-rect"></rect> <svg viewBox="0 0 60 68.96313920209649" x="0" y="0" width="24.812859043659042" height="24.812859043659042" class="image-svg-svg bn" style="overflow: visible;"><g hollow-target=""><g><svg xmlns="http://www.w3.org/2000/svg" viewBox="10.44 4.531 79.12 90.939" style="overflow: visible;" width="60" height="68.96313920209649" x="0" y="0" filtersec="colorsb3724607924" filter="url(#Z1eY5AnZyH6WVAOvEg8qO)"><g transform="scale(1, 1) skewX(0)"><path d="M50.367 95.47L10.806 73.052l-.366-45.47L49.634 4.531l39.561 22.417.365 45.469L50.367 95.47zM13.792 71.296l36.546 20.709L86.547 70.71l-.338-42.006L49.663 7.995 13.453 29.29l.339 42.006z" fill="#000000"></path><path d="M50.326 90.426L15.153 70.495l-.326-40.426L49.675 9.573l.251.142 34.921 19.79.002.289.323 40.137-.248.146-34.598 20.349zM16.148 69.909l34.168 19.362 33.853-19.909-.317-39.272-34.167-19.362-33.853 19.91.316 39.271z" fill="#000000"></path></g><defs><filter id="Z1eY5AnZyH6WVAOvEg8qO"><feColorMatrix type="matrix" values="0 0 0 0 0.8203125  0 0 0 0 0.40234375  0 0 0 0 0.94140625  0 0 0 1 0"></feColorMatrix></filter></defs></svg></g> <g><svg xmlns="http://www.w3.org/2000/svg" xlink="http://www.w3.org/1999/xlink" viewBox="0 0 105.47000122070312 100" width="40" height="45.97543" x="10" y="11.493854601048241" class="image-svg-icon"><defs><linearGradient id="aea0a744f-d118-4a75-af51-10123d2acb63" x1="106.93" y1="49.75" x2="76.88" y2="50.03" gradientUnits="userSpaceOnUse"><stop offset="0" stop-color="#d267f1"></stop><stop offset="1" stop-color="#3d0491"></stop></linearGradient><linearGradient id="b24df960f-0695-4647-a205-08a10fc413f1" x1="-2.93" y1="50.25" x2="28.81" y2="49.97" href="#aea0a744f-d118-4a75-af51-10123d2acb63"></linearGradient><linearGradient id="c8ec5d099-096f-4e20-b4bb-e3cb7f3845f0" x1="53.29" y1="45.23" x2="52.16" y2="100.84" href="#aea0a744f-d118-4a75-af51-10123d2acb63"></linearGradient><linearGradient id="d5690b04d-1763-4d8b-b9f4-263b0df15fea" x1="53.58" y1="-3.7" x2="51.62" y2="67.07" href="#aea0a744f-d118-4a75-af51-10123d2acb63"></linearGradient></defs><path d="M79.78 19.78L84 27.07l-2 3.42 15.3 8.83v21.36L82 69.51l2 3.42-4.21 7.29 25.68-14.83V34.61z" fill="url(#aea0a744f-d118-4a75-af51-10123d2acb63)"></path><path d="M23.45 69.51L8.16 60.68V39.32l15.29-8.83-2-3.42 4.21-7.29L0 34.61v30.78l25.68 14.83-4.21-7.29z" fill="url(#b24df960f-0695-4647-a205-08a10fc413f1)"></path><path d="M82.26 69.93l-.26-.42L70.75 50l-2.39-4.14H37.1L34.71 50 23.45 69.51l-2 3.42 4.21 7.29L37.1 100h31.26l10.83-18.75.59-1L84 72.93zM72 77.11l-8.43 14.61H41.88l-8.54-14.8-2.31-4 3.55-6.14 7.3-12.65h21.69l7.31 12.65.08.15 3.46 6-2.3 4z" fill="url(#c8ec5d099-096f-4e20-b4bb-e3cb7f3845f0)"></path><path d="M79.78 19.78l-.59-1L68.36 0H37.1L25.68 19.78l-4.21 7.29 2 3.42L34.71 50l2.39 4.14h31.26L70.75 50 82 30.49l.25-.42 1.73-3zM71 33.06l-.08.15-7.35 12.65H41.88l-7.3-12.65L31 27.07l2.31-4 8.54-14.8h21.72L72 22.89l.11.19 2.3 4z" fill="url(#d5690b04d-1763-4d8b-b9f4-263b0df15fea)"></path></svg></g></g><rect v-gra="id" width="71.99999618530273" height="80.96283721923828" transform="translate(-6, -6)" style="pointer-events:none;" fill="url(#p12mGNn9hZapsa0fi7-q4)"></rect></svg> </g><defs v-gra="od"></defs><defs v-gra="id"><filter id="eff59895-5599-4335-8de6-79acf5f1a554" filterUnits="userSpaceOnUse"><feColorMatrix type="matrix" values="0 0 0 0 0.99609375  0 0 0 0 0.99609375  0 0 0 0 0.99609375  0 0 0 1 0"></feColorMatrix></filter><linearGradient x1="0" y1="1" x2="0" y2="0" id="p12mGNn9hZapsa0fi7-q4"><stop offset="0%" stop-color="#4cf37b"></stop><stop offset="50%" stop-color="#23fe6f"></stop><stop offset="100%" stop-color="#131313"></stop></linearGradient><filter id="42443b3f1de60f6b6fd3b6a9844b4764" filterUnits="objectBoundingBox"><feColorMatrix type="matrix" values="0 0 0 0 0.99609375  0 0 0 0 0.99609375  0 0 0 0 0.99609375  0 0 0 1 0"></feColorMatrix></filter></defs><mask v-gra="im" id="0db6b6d4-62e3-47c0-9e2e-d632900557ff"><svg viewBox="0 0 60 68.96313920209649" x="0" y="0" width="24.812859043659042" height="24.812859043659042" class="image-svg-svg bn" style="overflow: visible;" filter="url(#eff59895-5599-4335-8de6-79acf5f1a554)"><g hollow-target=""><g><svg xmlns="http://www.w3.org/2000/svg" viewBox="10.44 4.531 79.12 90.939" style="overflow: visible;" width="60" height="68.96313920209649" x="0" y="0" filtersec="colorsb3724607924"><g transform="scale(1, 1) skewX(0)"><path d="M50.367 95.47L10.806 73.052l-.366-45.47L49.634 4.531l39.561 22.417.365 45.469L50.367 95.47zM13.792 71.296l36.546 20.709L86.547 70.71l-.338-42.006L49.663 7.995 13.453 29.29l.339 42.006z" fill="#000000"></path><path d="M50.326 90.426L15.153 70.495l-.326-40.426L49.675 9.573l.251.142 34.921 19.79.002.289.323 40.137-.248.146-34.598 20.349zM16.148 69.909l34.168 19.362 33.853-19.909-.317-39.272-34.167-19.362-33.853 19.91.316 39.271z" fill="#000000"></path></g><defs><filter id="Z1eY5AnZyH6WVAOvEg8qO"><feColorMatrix type="matrix" values="0 0 0 0 0.8203125  0 0 0 0 0.40234375  0 0 0 0 0.94140625  0 0 0 1 0"></feColorMatrix></filter></defs></svg></g> <g><svg xmlns="http://www.w3.org/2000/svg" xlink="http://www.w3.org/1999/xlink" viewBox="0 0 105.47000122070312 100" width="40" height="45.97543" x="10" y="11.493854601048241" class="image-svg-icon"><defs><linearGradient id="aea0a744f-d118-4a75-af51-10123d2acb63" x1="106.93" y1="49.75" x2="76.88" y2="50.03" gradientUnits="userSpaceOnUse"><stop offset="0" stop-color="#d267f1"></stop><stop offset="1" stop-color="#3d0491"></stop></linearGradient><linearGradient id="b24df960f-0695-4647-a205-08a10fc413f1" x1="-2.93" y1="50.25" x2="28.81" y2="49.97" href="#aea0a744f-d118-4a75-af51-10123d2acb63"></linearGradient><linearGradient id="c8ec5d099-096f-4e20-b4bb-e3cb7f3845f0" x1="53.29" y1="45.23" x2="52.16" y2="100.84" href="#aea0a744f-d118-4a75-af51-10123d2acb63"></linearGradient><linearGradient id="d5690b04d-1763-4d8b-b9f4-263b0df15fea" x1="53.58" y1="-3.7" x2="51.62" y2="67.07" href="#aea0a744f-d118-4a75-af51-10123d2acb63"></linearGradient></defs><path d="M79.78 19.78L84 27.07l-2 3.42 15.3 8.83v21.36L82 69.51l2 3.42-4.21 7.29 25.68-14.83V34.61z" fill="url(#aea0a744f-d118-4a75-af51-10123d2acb63)"></path><path d="M23.45 69.51L8.16 60.68V39.32l15.29-8.83-2-3.42 4.21-7.29L0 34.61v30.78l25.68 14.83-4.21-7.29z" fill="url(#b24df960f-0695-4647-a205-08a10fc413f1)"></path><path d="M82.26 69.93l-.26-.42L70.75 50l-2.39-4.14H37.1L34.71 50 23.45 69.51l-2 3.42 4.21 7.29L37.1 100h31.26l10.83-18.75.59-1L84 72.93zM72 77.11l-8.43 14.61H41.88l-8.54-14.8-2.31-4 3.55-6.14 7.3-12.65h21.69l7.31 12.65.08.15 3.46 6-2.3 4z" fill="url(#c8ec5d099-096f-4e20-b4bb-e3cb7f3845f0)"></path><path d="M79.78 19.78l-.59-1L68.36 0H37.1L25.68 19.78l-4.21 7.29 2 3.42L34.71 50l2.39 4.14h31.26L70.75 50 82 30.49l.25-.42 1.73-3zM71 33.06l-.08.15-7.35 12.65H41.88l-7.3-12.65L31 27.07l2.31-4 8.54-14.8h21.72L72 22.89l.11.19 2.3 4z" fill="url(#d5690b04d-1763-4d8b-b9f4-263b0df15fea)"></path></svg></g></g></svg></mask></g></svg>
